<?xml version="1.0"?>
<svg xmlns="http://www.w3.org/2000/svg" viewBox="0 0 100 100" width="100%" height="100%">
  <path fill="#ee3e54" d="M13,27c-1.105,0-2,0.895-2,2s0.895,2,2,2s2-0.895,2-2S14.105,27,13,27z"/>
  <path fill="#f1bc19" d="M77,12c-0.551,0-1,0.449-1,1s0.449,1,1,1s1-0.449,1-1S77.551,12,77,12z"/>
  <path fill="#fce0a2" d="M50,13c-20.434,0-37,16.566-37,37s16.566,37,37,37s37-16.566,37-37S70.434,13,50,13z"/>
  <path fill="#f1bc19" d="M83,11c-2.211,0-4,1.789-4,4s1.789,4,4,4s4-1.789,4-4S85.211,11,83,11z"/>
  <path fill="#ee3e54" d="M87,22c-1.105,0-2,0.895-2,2s0.895,2,2,2s2-0.895,2-2S88.105,22,87,22z"/>
  <path fill="#fbcd59" d="M81,74c-1.105,0-2,0.895-2,2s0.895,2,2,2s2-0.895,2-2S82.105,74,81,74z M15,59 c-2.211,0-4,1.789-4,4s1.789,4,4,4s4-1.789,4-4S17.211,59,15,59z"/>
  <path fill="#ee3e54" d="M25,85c-1.105,0-2,0.895-2,2s0.895,2,2,2s2-0.895,2-2S26.105,85,25,85z"/>
  <path fill="#fff" d="M19.5,50c-1.379,0-2.5,1.121-2.5,2.5s1.121,2.5,2.5,2.5s2.5-1.121,2.5-2.5S20.879,50,19.5,50z"/>
  <path fill="#f1bc19" d="M21,66c-0.551,0-1,0.449-1,1s0.449,1,1,1s1-0.449,1-1S21.551,66,21,66z"/>
  <path fill="#fff" d="M82,39c-0.551,0-1,0.449-1,1s0.449,1,1,1s1-0.449,1-1S82.551,39,82,39z"/>
  <path fill="#472b29" d="M72.5,74h-35c-0.276,0-0.5-0.224-0.5-0.5s0.224-0.5,0.5-0.5h35c0.276,0,0.5,0.224,0.5,0.5 S72.776,74,72.5,74z"/>
  <path fill="#472b29" d="M33.5,74h-5c-0.276,0-0.5-0.224-0.5-0.5s0.224-0.5,0.5-0.5h5c0.276,0,0.5,0.224,0.5,0.5 S33.776,74,33.5,74z"/>
  <rect width="6.6" height="36.1" x="46.7" y="32.7" fill="#cbc9bc"/>
  <path fill="#472b29" d="M52.6,33.4v34.7H50h-2.6V33.4H52.6 M54,32h-8v37.5h4h4V32L54,32z"/>
  <path fill="#472b29" d="M50.5,54.5c-0.276,0-0.5-0.224-0.5-0.5V43.5c0-0.276,0.224-0.5,0.5-0.5s0.5,0.224,0.5,0.5V54 C51,54.276,50.776,54.5,50.5,54.5z"/>
  <path fill="#472b29" d="M50.5,41c-0.276,0-0.5-0.224-0.5-0.5v-5c0-0.276,0.224-0.5,0.5-0.5s0.5,0.224,0.5,0.5v5 C51,40.776,50.776,41,50.5,41z"/>
  <polygon fill="#836f61" points="46.49,32.8 44.999,28.7 55.001,28.7 53.51,32.8"/>
  <path fill="#472b29" d="M54.001,29.4l-0.982,2.7h-6.039l-0.982-2.7H54.001 M56,28H44l2,5.5h8L56,28L56,28z"/>
  <path fill="#cbc9bc" d="M43.25,28.8c-0.854,0-1.55-0.695-1.55-1.55s0.695-1.55,1.55-1.55h13.5 c0.854,0,1.55,0.695,1.55,1.55s-0.695,1.55-1.55,1.55H43.25z"/>
  <path fill="#472b29" d="M56.75,26.4c0.469,0,0.85,0.381,0.85,0.85s-0.381,0.85-0.85,0.85h-13.5 c-0.469,0-0.85-0.381-0.85-0.85s0.381-0.85,0.85-0.85H56.75 M56.75,25h-13.5C42.007,25,41,26.007,41,27.25s1.007,2.25,2.25,2.25 h13.5c1.243,0,2.25-1.007,2.25-2.25S57.993,25,56.75,25L56.75,25z"/>
  <path fill="#6f913d" d="M53.5,73.5c0,0,0-19,12-23c-4,5-7,11-7,23C56.125,73.625,53.5,73.5,53.5,73.5z"/>
  <path fill="#472b29" d="M56.155,74.055c-1.484,0-2.661-0.055-2.679-0.056C53.21,73.987,53,73.767,53,73.5 c0-0.791,0.141-19.407,12.342-23.474c0.21-0.07,0.441,0.007,0.568,0.188c0.127,0.182,0.119,0.425-0.02,0.598 C62.312,55.286,59,61.13,59,73.5c0,0.266-0.208,0.485-0.474,0.499C57.731,74.041,56.904,74.055,56.155,74.055z M54.012,73.019 c0.786,0.026,2.406,0.064,3.99,0.003c0.075-11.053,2.787-16.959,5.969-21.344C55.064,56.188,54.112,70.235,54.012,73.019z"/>
  <path fill="#88ae45" d="M44.499,73.521c0,0,0-11.995-12-14.52c3,3.5,6,6.5,7,14.52 C41.874,73.599,44.499,73.521,44.499,73.521z"/>
  <path fill="#472b29" d="M41.844,74.055c-0.746,0-1.569-0.009-2.361-0.035c-0.246-0.008-0.449-0.194-0.479-0.438 c-0.917-7.358-3.536-10.385-6.308-13.59l-0.576-0.667c-0.139-0.163-0.159-0.396-0.051-0.58c0.11-0.184,0.327-0.279,0.533-0.234 c12.256,2.579,12.397,14.886,12.397,15.01c0,0.27-0.215,0.492-0.485,0.5C44.496,74.021,43.323,74.055,41.844,74.055z M39.939,73.033c1.595,0.04,3.238,0.016,4.041,0c-0.134-2.136-1.226-10.46-10.063-13.154 C36.562,62.953,38.994,66.089,39.939,73.033z"/>
  <path fill="#88ae45" d="M56.499,73.521c0,0,0-11.995,12-14.52c-3,3.5-6,6.5-7,14.52 C59.124,73.599,56.499,73.521,56.499,73.521z"/>
  <path fill="#472b29" d="M59.154,74.055c-1.479,0-2.652-0.035-2.67-0.035c-0.271-0.008-0.485-0.229-0.485-0.5 c0-0.124,0.142-12.431,12.397-15.01c0.208-0.045,0.424,0.05,0.533,0.234c0.108,0.184,0.088,0.418-0.051,0.58l-0.576,0.667 c-2.771,3.205-5.391,6.232-6.308,13.59c-0.03,0.244-0.233,0.43-0.479,0.438C60.724,74.047,59.9,74.055,59.154,74.055z M57.023,73.033c0.805,0.017,2.444,0.041,4.035,0c0.945-6.942,3.376-10.078,6.02-13.151C58.358,62.565,57.182,70.922,57.023,73.033 z"/>
  <path fill="#88ae45" d="M49.5,73.484c0,0-1-18.984,11-30.984c-2,6.41-5,15.617-5,31C53.5,73.516,49.5,73.484,49.5,73.484z"/>
  <path fill="#472b29" d="M54.109,74.004c-2.051,0-4.613-0.02-4.613-0.02c-0.265-0.002-0.481-0.21-0.495-0.474 c-0.011-0.192-0.873-19.346,11.146-31.364c0.163-0.163,0.416-0.193,0.612-0.074c0.197,0.119,0.287,0.357,0.219,0.577l-0.151,0.484 C58.789,49.65,56,58.576,56,73.5c0,0.275-0.222,0.498-0.496,0.5C55.104,74.003,54.622,74.004,54.109,74.004z M49.986,72.988 c1.014,0.007,3.4,0.021,5.015,0.015c0.057-13.591,2.409-22.197,4.368-28.553C50.17,55.087,49.942,70.147,49.986,72.988z"/>
  <g>
    <path fill="#6f913d" d="M50.479,73.489c0,0,1-14.392-11-23.489c2,4.859,5,11.839,5,23.501 C46.479,73.513,50.479,73.489,50.479,73.489z"/>
    <path fill="#472b29" d="M45.858,74.004c-0.509,0-0.984-0.001-1.382-0.003c-0.275-0.002-0.497-0.225-0.497-0.5 c0-11.273-2.781-18.019-4.812-22.944l-0.15-0.366c-0.086-0.209-0.021-0.449,0.157-0.587c0.179-0.137,0.428-0.138,0.606-0.002 c12.076,9.155,11.207,23.776,11.197,23.922c-0.019,0.261-0.234,0.464-0.496,0.465C50.482,73.989,47.91,74.004,45.858,74.004z M44.978,73.003c1.615,0.004,4.004-0.006,5.018-0.011c0.031-2.386-0.335-13.469-9.307-21.359 C42.556,56.259,44.902,62.933,44.978,73.003z"/>
  </g>
  <g>
    <path fill="#77cbd2" d="M29.441,32.245c0,0-5.013-0.909-7.195,1.767c-0.248,0.304-0.454,0.651-0.572,1.222 c-0.28,1.352,0.59,2.675,1.942,2.955c1.196,0.247,2.366-0.406,2.814-1.495C27.146,35.461,27.628,33.537,29.441,32.245z"/>
    <path fill="#472b29" d="M24.124,38.741c-0.201,0-0.405-0.02-0.609-0.063c-1.619-0.335-2.665-1.925-2.33-3.545 c0.148-0.72,0.424-1.13,0.674-1.437c2.34-2.873,7.457-1.982,7.671-1.943c0.198,0.036,0.355,0.187,0.399,0.383 c0.044,0.196-0.034,0.4-0.198,0.516c-1.243,0.886-1.814,2.114-2.319,3.197c-0.185,0.396-0.358,0.769-0.548,1.095 C26.419,38.031,25.315,38.741,24.124,38.741z M27.496,32.599c-1.551,0-3.691,0.293-4.862,1.729c-0.183,0.223-0.365,0.5-0.471,1.007 c-0.223,1.08,0.475,2.14,1.555,2.364c0.942,0.197,1.885-0.309,2.251-1.196c0.205-0.363,0.365-0.708,0.536-1.076 c0.405-0.87,0.887-1.903,1.744-2.806C28.022,32.608,27.768,32.599,27.496,32.599z"/>
  </g>
  <g>
    <path fill="#77cbd2" d="M32.494,38.906c0,0-4.966,1.138-5.917,4.457c-0.108,0.377-0.161,0.777-0.044,1.348 c0.275,1.353,1.595,2.227,2.948,1.951c1.197-0.244,2.015-1.305,1.998-2.483C31.651,42.765,31.336,40.808,32.494,38.906z"/>
    <path fill="#472b29" d="M28.98,47.214c-1.396,0-2.65-0.982-2.939-2.402c-0.146-0.721-0.055-1.206,0.055-1.586 c1.021-3.561,6.071-4.757,6.286-4.806c0.194-0.045,0.4,0.032,0.517,0.195c0.118,0.163,0.126,0.381,0.021,0.552 c-0.794,1.305-0.836,2.659-0.873,3.853c-0.013,0.437-0.026,0.847-0.072,1.221c0.024,1.372-0.984,2.625-2.395,2.912 C29.379,47.194,29.179,47.214,28.98,47.214z M31.546,39.721c-1.436,0.517-3.889,1.686-4.489,3.78 c-0.079,0.277-0.139,0.603-0.035,1.111c0.22,1.081,1.282,1.781,2.359,1.561c0.939-0.191,1.611-1.026,1.598-1.986 c0.046-0.414,0.057-0.794,0.069-1.199C31.077,42.029,31.112,40.889,31.546,39.721z"/>
  </g>
  <g>
    <path fill="#77cbd2" d="M39.102,32.564c0,0-3.372-1.63-5.443-0.164c-0.235,0.167-0.449,0.372-0.645,0.753 c-0.464,0.903-0.109,2.01,0.794,2.474c0.798,0.41,1.755,0.178,2.287-0.505C36.844,34.39,37.564,33.123,39.102,32.564z"/>
    <path fill="#472b29" d="M34.655,36.332c-0.364,0-0.733-0.083-1.076-0.26c-1.146-0.589-1.6-2.001-1.01-3.147 c0.262-0.509,0.565-0.766,0.801-0.932c2.286-1.619,5.801,0.05,5.949,0.122c0.181,0.088,0.292,0.275,0.281,0.476 c-0.01,0.201-0.14,0.376-0.328,0.444c-1.021,0.371-1.656,1.113-2.216,1.768c-0.212,0.248-0.411,0.481-0.612,0.677 C36.021,36.028,35.349,36.332,34.655,36.332z M35.82,32.287c-0.662,0-1.326,0.135-1.872,0.521c-0.184,0.13-0.338,0.278-0.49,0.573 c-0.337,0.656-0.077,1.464,0.578,1.801c0.569,0.293,1.269,0.138,1.664-0.368c0.227-0.228,0.405-0.438,0.597-0.662 c0.417-0.489,0.904-1.06,1.58-1.519C37.31,32.458,36.566,32.287,35.82,32.287z"/>
  </g>
  <g>
    <path fill="#77cbd2" d="M70.283,32.245c0,0,5.013-0.909,7.195,1.767c0.248,0.304,0.454,0.651,0.572,1.222 c0.28,1.352-0.59,2.675-1.942,2.955c-1.196,0.247-2.366-0.406-2.814-1.495C72.578,35.461,72.096,33.537,70.283,32.245z"/>
    <path fill="#472b29" d="M75.602,38.741c-1.192,0-2.301-0.717-2.771-1.856c-0.16-0.266-0.334-0.638-0.519-1.035 c-0.505-1.083-1.076-2.311-2.319-3.197c-0.164-0.117-0.242-0.32-0.198-0.516c0.044-0.196,0.201-0.347,0.399-0.383 c0.215-0.04,5.329-0.93,7.671,1.943c0.25,0.306,0.525,0.717,0.674,1.437c0.335,1.62-0.711,3.211-2.33,3.546 C76.006,38.72,75.803,38.741,75.602,38.741z M71.473,32.62c0.859,0.903,1.341,1.937,1.746,2.807 c0.171,0.368,0.331,0.713,0.507,1.016c0.395,0.948,1.344,1.449,2.28,1.257c1.08-0.223,1.777-1.284,1.555-2.364 c-0.105-0.507-0.288-0.784-0.471-1.007C75.711,32.635,72.999,32.527,71.473,32.62z"/>
  </g>
  <g>
    <path fill="#77cbd2" d="M67.23,38.906c0,0,4.966,1.138,5.917,4.457c0.108,0.377,0.161,0.777,0.044,1.348 c-0.275,1.353-1.595,2.227-2.948,1.951c-1.197-0.244-2.015-1.305-1.998-2.483C68.073,42.765,68.388,40.808,67.23,38.906z"/>
    <path fill="#472b29" d="M70.749,47.215c-0.201,0-0.403-0.02-0.604-0.061c-1.41-0.287-2.42-1.54-2.399-2.98 c-0.042-0.307-0.056-0.717-0.068-1.154c-0.037-1.195-0.079-2.549-0.873-3.853c-0.104-0.172-0.097-0.389,0.021-0.552 c0.117-0.163,0.32-0.24,0.517-0.195c0.215,0.049,5.266,1.245,6.286,4.807c0.109,0.38,0.201,0.865,0.055,1.586 c-0.16,0.785-0.616,1.461-1.284,1.904C71.901,47.044,71.331,47.215,70.749,47.215z M68.177,39.719 c0.435,1.169,0.47,2.309,0.499,3.27c0.013,0.405,0.023,0.785,0.065,1.131c-0.01,1.027,0.663,1.862,1.603,2.053 c0.521,0.107,1.057,0.003,1.503-0.292c0.445-0.295,0.749-0.745,0.855-1.269c0.104-0.508,0.044-0.834-0.035-1.111 C72.065,41.402,69.611,40.235,68.177,39.719z"/>
  </g>
  <g>
    <path fill="#77cbd2" d="M60.622,32.564c0,0,3.372-1.63,5.443-0.164c0.235,0.167,0.449,0.372,0.645,0.753 c0.464,0.903,0.109,2.01-0.794,2.474c-0.798,0.41-1.755,0.178-2.287-0.505C62.879,34.39,62.16,33.123,60.622,32.564z"/>
    <path fill="#472b29" d="M65.08,36.33c-0.702,0-1.391-0.316-1.846-0.9c-0.155-0.146-0.354-0.378-0.565-0.625 c-0.561-0.656-1.195-1.399-2.218-1.77c-0.188-0.069-0.318-0.244-0.328-0.444c-0.011-0.201,0.101-0.388,0.281-0.476 c0.148-0.072,3.662-1.741,5.949-0.122c0.235,0.167,0.539,0.424,0.801,0.932c0.59,1.146,0.137,2.558-1.01,3.148 C65.806,36.246,65.441,36.33,65.08,36.33z M61.847,32.635c0.677,0.459,1.164,1.031,1.582,1.521c0.19,0.223,0.369,0.433,0.55,0.61 c0.438,0.556,1.139,0.711,1.709,0.418c0.655-0.337,0.915-1.145,0.578-1.801c-0.152-0.296-0.307-0.443-0.49-0.573 C64.613,31.986,62.917,32.301,61.847,32.635z"/>
  </g>
  <g>
    <path fill="#472b29" d="M52.5,73.75c-0.138,0-0.25-0.112-0.25-0.25c0-2.224,0.149-4.628,0.444-7.146 c0.016-0.137,0.145-0.236,0.277-0.219c0.137,0.016,0.235,0.14,0.219,0.277c-0.292,2.499-0.44,4.884-0.44,7.088 C52.75,73.638,52.638,73.75,52.5,73.75z"/>
  </g>
  <g>
    <path fill="#472b29" d="M53.214,64.557c-0.012,0-0.023-0.001-0.036-0.002c-0.136-0.02-0.231-0.146-0.211-0.283 c0.245-1.707,0.558-3.475,0.928-5.257c0.028-0.135,0.164-0.222,0.296-0.194c0.136,0.028,0.222,0.161,0.194,0.296 c-0.368,1.771-0.679,3.53-0.924,5.226C53.443,64.467,53.337,64.557,53.214,64.557z"/>
  </g>
  <g>
    <path fill="#472b29" d="M54.628,57.111c-0.019,0-0.038-0.002-0.057-0.007c-0.135-0.031-0.219-0.166-0.187-0.301 c0.486-2.073,0.872-3.363,0.876-3.376c0.039-0.132,0.175-0.207,0.312-0.167c0.132,0.04,0.207,0.179,0.167,0.312 c-0.004,0.012-0.386,1.29-0.868,3.346C54.845,57.033,54.741,57.111,54.628,57.111z"/>
  </g>
  <g>
    <path fill="#472b29" d="M47.5,73.75c-0.138,0-0.25-0.112-0.25-0.25c0-2.891-0.338-5.81-1.003-8.677 c-0.031-0.135,0.052-0.269,0.187-0.3c0.142-0.033,0.27,0.052,0.3,0.187c0.675,2.904,1.017,5.862,1.017,8.79 C47.75,73.638,47.638,73.75,47.5,73.75z"/>
  </g>
  <g>
    <path fill="#472b29" d="M45.875,62.688c-0.107,0-0.207-0.07-0.239-0.179c-1.088-3.651-2.34-5.863-2.353-5.885 c-0.068-0.12-0.027-0.273,0.093-0.341c0.119-0.069,0.272-0.027,0.341,0.093c0.013,0.022,1.294,2.285,2.397,5.99 c0.04,0.132-0.035,0.271-0.168,0.311C45.923,62.684,45.898,62.688,45.875,62.688z"/>
  </g>
  <g>
    <path fill="#472b29" d="M41.5,73.75c-0.138,0-0.25-0.112-0.25-0.25c0-5.829-3.888-9.784-3.927-9.823 c-0.098-0.098-0.098-0.256,0-0.354s0.256-0.098,0.354,0c0.041,0.041,4.073,4.143,4.073,10.177 C41.75,73.638,41.638,73.75,41.5,73.75z"/>
  </g>
  <g>
    <path fill="#472b29" d="M58.5,73.75c-0.014,0-0.027-0.001-0.041-0.003c-0.137-0.023-0.229-0.151-0.206-0.288 c0.291-1.745,0.777-3.406,1.446-4.938c0.055-0.126,0.201-0.186,0.329-0.129c0.127,0.055,0.185,0.203,0.13,0.329 c-0.652,1.494-1.128,3.116-1.411,4.82C58.727,73.663,58.62,73.75,58.5,73.75z"/>
  </g>
  <g>
    <path fill="#472b29" d="M60.945,66.88c-0.044,0-0.088-0.011-0.128-0.035c-0.118-0.071-0.157-0.224-0.087-0.343 c0.851-1.43,1.563-2.149,1.593-2.179c0.098-0.097,0.256-0.098,0.354,0c0.098,0.097,0.098,0.256,0,0.353 c-0.007,0.007-0.701,0.71-1.517,2.081C61.113,66.836,61.03,66.88,60.945,66.88z"/>
  </g>
</svg>
